<svg version="1.1" id="Layer_3" xmlns="http://www.w3.org/2000/svg" xmlns:xlink="http://www.w3.org/1999/xlink" x="0px" y="0px" width="28px" height="28px" viewBox="0 0 64 64" style="enable-background:new 0 0 64 64;" xml:space="preserve">
<g>
	<path d="M36,31h-2c0,1.103-0.897,2-2,2s-2-0.897-2-2h-2c0,2.206,1.794,4,4,4S36,33.206,36,31z" id="id_101" style="fill: rgb(255, 255, 255);"></path>
	<rect x="36" y="23" width="2" height="3" id="id_102" style="fill: rgb(255, 255, 255);"></rect>
	<rect x="26" y="23" width="2" height="3" id="id_103" style="fill: rgb(255, 255, 255);"></rect>
	<path d="M57,55.142V54c0-1.654-1.346-3-3-3H33v-1h20c0.553,0,1-0.447,1-1c0-2.832-1.816-5.303-4.521-6.147L38,39.265V37.52
		c3.287-1.708,5.79-4.772,6.68-8.52H45c2.206,0,4-1.794,4-4c0-1.344-0.671-2.528-1.689-3.254l0.622-6.097
		c0.256-2.513-0.218-5.034-1.369-7.292C44.25,3.819,39.602,1,34.433,1h-4.865c-5.169,0-9.817,2.819-12.131,7.357
		c-1.151,2.258-1.625,4.779-1.369,7.292l0.622,6.097C15.671,22.472,15,23.656,15,25c0,2.206,1.794,4,4,4h0.32
		c0.89,3.748,3.393,6.812,6.68,8.52v1.744l-11.479,3.588C11.816,43.697,10,46.168,10,49c0,0.553,0.447,1,1,1h20v1H10
		c-1.654,0-3,1.346-3,3v1.142C5.279,55.589,4,57.141,4,59c0,2.206,1.794,4,4,4s4-1.794,4-4c0-1.859-1.279-3.411-3-3.858V54
		c0-0.552,0.448-1,1-1h9v2.142c-1.721,0.447-3,1.999-3,3.858c0,2.206,1.794,4,4,4s4-1.794,4-4c0-1.859-1.279-3.411-3-3.858V53h10
		v2.142c-1.721,0.447-3,1.999-3,3.858c0,2.206,1.794,4,4,4s4-1.794,4-4c0-1.859-1.279-3.411-3-3.858V53h10v2.142
		c-1.721,0.447-3,1.999-3,3.858c0,2.206,1.794,4,4,4s4-1.794,4-4c0-1.859-1.279-3.411-3-3.858V53h9c0.552,0,1,0.448,1,1v1.142
		c-1.721,0.447-3,1.999-3,3.858c0,2.206,1.794,4,4,4s4-1.794,4-4C60,57.141,58.721,55.589,57,55.142z M38.934,41.652l-3.132,3.132
		l-1.957-0.979l3.365-2.692L38.934,41.652z M45,27h-0.026c0.039-0.719,0.024-1.477-0.058-2.296L44.745,23H45c1.103,0,2,0.897,2,2
		S46.103,27,45,27z M17,25c0-1.103,0.897-2,2-2h0.255l-0.171,1.704c-0.082,0.819-0.097,1.577-0.058,2.296H19
		C17.897,27,17,26.103,17,25z M19.967,15.9L19.455,21H19c-0.127,0-0.248,0.026-0.372,0.038l-0.57-5.591
		c-0.218-2.129,0.184-4.267,1.16-6.181C21.188,5.401,25.154,3,29.567,3h4.865c4.413,0,8.379,2.401,10.35,6.266
		c0.977,1.914,1.378,4.052,1.16,6.181l-0.57,5.591C45.248,21.026,45.127,21,45,21h-0.455l-0.511-5.1
		c-0.045-0.443-0.376-0.803-0.813-0.884c-0.44-0.08-0.876,0.138-1.075,0.535l-1.454,2.897l-4.054-3.231
		c-0.235-0.188-0.541-0.259-0.838-0.194c-0.294,0.064-0.544,0.259-0.679,0.528l-1.501,2.99l-5.079-3.375
		c-0.272-0.18-0.612-0.217-0.915-0.1s-0.529,0.374-0.608,0.689l-0.659,2.627l-4.842-3.217c-0.293-0.193-0.664-0.219-0.981-0.071
		C20.217,15.246,20.002,15.552,19.967,15.9z M21.183,28.217c-0.199-0.973-0.234-2.057-0.108-3.313l0.717-7.151l4.638,3.081
		c0.271,0.179,0.611,0.216,0.915,0.1c0.303-0.117,0.529-0.374,0.608-0.689l0.659-2.627l4.842,3.217
		c0.239,0.158,0.531,0.206,0.811,0.134c0.276-0.074,0.509-0.263,0.637-0.519l1.454-2.897l4.054,3.231
		c0.236,0.188,0.544,0.261,0.838,0.194c0.294-0.064,0.544-0.259,0.679-0.528l0.462-0.92l0.539,5.375
		c0.126,1.257,0.091,2.341-0.108,3.313C41.772,33.306,37.223,37,32,37S22.228,33.306,21.183,28.217z M32,39
		c1.388,0,2.731-0.232,4-0.643v1.161l-4,3.201l-4-3.201v-1.161C29.269,38.768,30.612,39,32,39z M26.79,41.113l3.365,2.692
		l-1.957,0.979l-3.132-3.132L26.79,41.113z M15.116,44.761l7.795-2.436l4.382,4.382C27.485,46.899,27.741,47,28,47
		c0.152,0,0.305-0.034,0.447-0.105L32,45.118l3.553,1.776C35.695,46.966,35.848,47,36,47c0.259,0,0.515-0.101,0.707-0.293
		l4.382-4.382l7.795,2.436c1.537,0.48,2.658,1.724,3.004,3.239H12.112C12.458,46.484,13.579,45.241,15.116,44.761z M10,59
		c0,1.103-0.897,2-2,2s-2-0.897-2-2s0.897-2,2-2S10,57.897,10,59z M22,59c0,1.103-0.897,2-2,2s-2-0.897-2-2s0.897-2,2-2
		S22,57.897,22,59z M34,59c0,1.103-0.897,2-2,2s-2-0.897-2-2s0.897-2,2-2S34,57.897,34,59z M46,59c0,1.103-0.897,2-2,2s-2-0.897-2-2
		s0.897-2,2-2S46,57.897,46,59z M56,61c-1.103,0-2-0.897-2-2s0.897-2,2-2s2,0.897,2,2S57.103,61,56,61z" id="id_104" style="fill: rgb(255, 255, 255);"></path>
</g>
</svg>