<svg id="Layer_1" data-name="Layer 1" xmlns="http://www.w3.org/2000/svg" width="32px" height="32px" viewBox="0 0 64 64"><defs><style>.cls-1{fill:#e5e5e5;}.cls-2{fill:#d1d1d1;}.cls-3{fill:#35251c;}.cls-4{fill:#915441;}.cls-5{fill:#2d2017;}</style></defs><title>Coffee Cup ICon</title><path class="cls-1" d="M15.33,19.85V51.07a3.27,3.27,0,0,0,3,3.46H43.5a3.27,3.27,0,0,0,3-3.46V19.85Z" id="id_110"></path><path class="cls-2" d="M34.83,54.53H43.5a3.27,3.27,0,0,0,3-3.46V19.85H34.83Z" id="id_111"></path><path class="cls-3" d="M51.51,22.2h0A17.18,17.18,0,0,0,48,21.79V18.35H13.83V51.07a4.76,4.76,0,0,0,4.5,5H43.5a4.76,4.76,0,0,0,4.5-5V47.69a15.48,15.48,0,0,0,11.2-12C60.29,28.88,57.27,23.57,51.51,22.2ZM45,51.07a1.8,1.8,0,0,1-1.5,2H18.33a1.81,1.81,0,0,1-1.5-2V21.35H45ZM55.25,35.16A11.72,11.72,0,0,1,48,43.75V25.55a12.25,12.25,0,0,1,2.53.3C54.93,26.89,55.85,31.35,55.25,35.16Z" id="id_112"></path><rect class="cls-3" x="19.67" y="10.62" width="8" height="3" rx="1.5" transform="translate(35.78 -11.55) rotate(90)" id="id_113"></rect><rect class="cls-3" x="34.17" y="10.62" width="8" height="3" rx="1.5" transform="translate(50.28 -26.05) rotate(90)" id="id_114"></rect><rect class="cls-3" x="24.92" y="8.6" width="12" height="3" rx="1.5" transform="translate(41.02 -20.82) rotate(90)" id="id_115"></rect><rect class="cls-3" x="13.83" y="57.96" width="34.17" height="3" rx="1.2" id="id_116"></rect><ellipse class="cls-4" cx="31.28" cy="37.19" rx="6.86" ry="4.98" transform="translate(-12.86 57.51) rotate(-74.65)" id="id_117"></ellipse><path class="cls-5" d="M36.91,33.08a5.1,5.1,0,0,0-8.38-2.3,9.29,9.29,0,0,0-3,4.82c-1.15,4.19.51,8.31,3.7,9.19a4.9,4.9,0,0,0,1.26.17A5.81,5.81,0,0,0,34,43.6a9.38,9.38,0,0,0,3-4.82h0A9.27,9.27,0,0,0,36.91,33.08Zm-9.46,3.06a7.23,7.23,0,0,1,2.35-3.77.6.6,0,0,1,.13-.09,8.38,8.38,0,0,0-.67,3.28,33,33,0,0,0,.14,3.53c.13,1.75.17,2.68-.28,3.47C27.46,41.61,26.7,38.87,27.45,36.14Zm7.65,2.1h0A7.32,7.32,0,0,1,32.76,42a4.07,4.07,0,0,1-1.54.8,9.43,9.43,0,0,0,.2-3.87,32.79,32.79,0,0,1-.13-3.33c.06-2.75,1.22-3.69,1.74-4a3.48,3.48,0,0,1,2,2.16A7.27,7.27,0,0,1,35.1,38.24Z" id="id_118"></path></svg>