<svg xmlns="http://www.w3.org/2000/svg" width="28px" height="28px" viewBox="0 0 32 32"><defs><style>.cls-1{fill:#231f20;}</style></defs><title>Chat, comment, dialogue, messages, mail</title><g id="Layer_3" data-name="Layer 3"><path class="cls-1" d="M29,27H3a1,1,0,0,1-1-1V6A1,1,0,0,1,3,5H29a1,1,0,0,1,1,1V26A1,1,0,0,1,29,27ZM4,25H28V7H4Z" id="id_101" style="fill: rgb(255, 255, 255);"></path><path class="cls-1" d="M16,20a1,1,0,0,1-.71-.29l-13-13a1,1,0,0,1-.21-1.09A1,1,0,0,1,3,5H29a1,1,0,0,1,.92.62,1,1,0,0,1-.21,1.09l-13,13A1,1,0,0,1,16,20ZM5.41,7,16,17.59,26.59,7Z" id="id_102" style="fill: rgb(255, 255, 255);"></path></g></svg>