<svg id="Layer_1" data-name="Layer 1" xmlns="http://www.w3.org/2000/svg" width="28px" height="28px" viewBox="0 0 128 128"><defs><style>.cls-1{fill:#2e79bd;}.cls-2{fill:#2d3e50;}</style></defs><title>b</title><path class="cls-1" d="M92.38778,30.87291c-.49336-.06524-.98672-.121-1.47871-.178a27.26233,27.26233,0,0,0-4.22276-10.158q.46685-.58511.92692-1.17836c.83721-1.07505,1.66219-2.16234,2.45047-3.285L83.81722,9.82706c-1.12263.78829-2.20992,1.61327-3.285,2.45048q-.59325.4587-1.17835.92692A27.26914,27.26914,0,0,0,69.18365,8.979q-.08358-.738-.17668-1.476c-.16853-1.351-.35337-2.70328-.58985-4.05423H59.58289c-.23513,1.351-.42,2.70328-.58986,4.05423q-.09378.738-.17532,1.476a27.253,27.253,0,0,0-10.1716,4.22548q-.5851-.46889-1.17835-.92692c-1.07505-.83722-2.161-1.66219-3.28361-2.45048l-6.24784,6.24648c.78964,1.12263,1.61463,2.20992,2.45048,3.285q.46074.59122.92692,1.177A27.27542,27.27542,0,0,0,37.08822,30.7071q-.738.08359-1.47463.17668c-1.35232.16854-2.70328.35337-4.05559.58986v8.83423c1.35232.23512,2.70328.42,4.05559.58986q.738.09377,1.47463.17533a27.2612,27.2612,0,0,0,4.21868,10.16208c-.31123.39141-.62247.78283-.92691,1.1797-.8345,1.07777-1.65676,2.16642-2.44369,3.29177l6.24784,6.24647c1.12534-.78557,2.214-1.60782,3.29177-2.44232.39686-.30444.78828-.61568,1.17971-.92691a27.26764,27.26764,0,0,0,10.14985,4.216c.05573.492.11281.98536.178,1.47737.17125,1.35231.35881,2.70326.59937,4.05559h8.83423c.24056-1.35233.42948-2.70328.60073-4.05559.06523-.492.121-.98536.178-1.47737a27.2707,27.2707,0,0,0,10.14849-4.216c.39142.31123.78421.62247,1.18107.92691,1.07642.8345,2.16506,1.65675,3.29177,2.44232l6.24647-6.24647c-.78556-1.12535-1.60782-2.214-2.44368-3.29177-.30444-.39821-.61567-.78965-.92556-1.18106a27.26835,27.26835,0,0,0,4.21461-10.1485c.492-.05709.98536-.1128,1.47871-.17805,1.351-.17123,2.70328-.35881,4.05423-.59936V31.47364C95.09105,31.23307,93.73874,31.04416,92.38778,30.87291ZM72.71327,53.0509a19.24432,19.24432,0,0,1-25.87342-8.44823,18.8939,18.8939,0,0,1-1.14437-2.759,19.1911,19.1911,0,0,1,1.15388-14.68384,19.36849,19.36849,0,0,1,8.4197-8.4197,18.95625,18.95625,0,0,1,2.778-1.15525,19.27426,19.27426,0,0,1,11.90719.00136,18.93432,18.93432,0,0,1,2.77666,1.15388,19.36858,19.36858,0,0,1,8.4197,8.4197,19.18591,19.18591,0,0,1,.00951,17.44285A19.37334,19.37334,0,0,1,72.71327,53.0509Z" id="id_101" style="fill: rgb(255, 255, 255);"></path><path class="cls-2" d="M108.73687,89.56483C98.62915,84.52608,76.446,77.07991,76.446,77.07991H74.56928l-6.07,8.0983,5.69081,39.37305h42.39854s-.30711-17.04967-2.0397-27.15739A10.79567,10.79567,0,0,0,108.73687,89.56483Z" id="id_102" style="fill: rgb(255, 255, 255);"></path><path class="cls-2" d="M51.554,77.07991S29.37085,84.52608,19.26313,89.56483a10.79567,10.79567,0,0,0-5.81211,7.829c-1.73259,10.10772-2.0397,27.15739-2.0397,27.15739H53.80986L59.50067,85.1782l-6.07-8.0983Z" id="id_103" style="fill: rgb(255, 255, 255);"></path></svg>