<svg width="28px" height="28px" viewBox="0 0 64 64" fill="none" xmlns="http://www.w3.org/2000/svg">
<path d="M59.85 28.7199C54.29 17.4799 54 17.42 36 14.35C35.7348 14.3062 35.463 14.3696 35.2446 14.5262C35.0261 14.6828 34.8788 14.9197 34.835 15.185C34.7912 15.4502 34.8546 15.7219 35.0112 15.9404C35.1678 16.1589 35.4048 16.3062 35.67 16.35C52.94 19.35 52.94 19.3499 58.05 29.6299C59.17 31.9099 60.05 35.17 55.83 38.11C54.16 24.53 32.52 17.84 18.05 23.11C13.22 15.73 4.65 21.1899 7.5 29.4799C4.69757 32.1959 3.08039 35.9082 3 39.81C2.93 45.29 14.8 47.16 20.7 47.66H4C3.73479 47.66 3.48043 47.7653 3.2929 47.9528C3.10536 48.1404 3 48.3947 3 48.66C3 48.9252 3.10536 49.1795 3.2929 49.3671C3.48043 49.5546 3.73479 49.66 4 49.66H35.84C36.0511 49.6522 36.2544 49.5778 36.4206 49.4473C36.5868 49.3169 36.7074 49.1372 36.7652 48.934C36.8229 48.7307 36.8148 48.5144 36.742 48.3161C36.6692 48.1178 36.5355 47.9476 36.36 47.83C46.06 47.16 55.17 44.97 55.91 40.41C60.91 37.49 62.24 33.5599 59.85 28.7199ZM10.85 39.36C10.3487 39.36 9.86801 39.1608 9.51357 38.8064C9.15913 38.4519 8.96 37.9712 8.96 37.47C8.96 36.9687 9.15913 36.488 9.51357 36.1335C9.86801 35.7791 10.3487 35.58 10.85 35.58C11.3513 35.5826 11.8309 35.7843 12.1835 36.1406C12.5361 36.4969 12.7327 36.9787 12.73 37.4799C12.7274 37.9812 12.5257 38.4609 12.1694 38.8135C11.813 39.166 11.3313 39.3626 10.83 39.36H10.85Z" fill="#4d00ff" id="id_101"></path>
<path d="M41.69 47.6599H39.16C38.8948 47.6599 38.6405 47.7653 38.4529 47.9528C38.2654 48.1403 38.16 48.3947 38.16 48.6599C38.16 48.9251 38.2654 49.1795 38.4529 49.367C38.6405 49.5546 38.8948 49.6599 39.16 49.6599H41.69C41.9552 49.6599 42.2096 49.5546 42.3971 49.367C42.5847 49.1795 42.69 48.9251 42.69 48.6599C42.69 48.3947 42.5847 48.1403 42.3971 47.9528C42.2096 47.7653 41.9552 47.6599 41.69 47.6599Z" fill="#4d00ff" id="id_102"></path>
<path d="M55 47.6599H45.2C44.9348 47.6599 44.6804 47.7653 44.4929 47.9528C44.3054 48.1403 44.2 48.3947 44.2 48.6599C44.2 48.9251 44.3054 49.1795 44.4929 49.367C44.6804 49.5546 44.9348 49.6599 45.2 49.6599H55C55.2652 49.6599 55.5196 49.5546 55.7071 49.367C55.8947 49.1795 56 48.9251 56 48.6599C56 48.3947 55.8947 48.1403 55.7071 47.9528C55.5196 47.7653 55.2652 47.6599 55 47.6599Z" fill="#4d00ff" id="id_103"></path>
</svg>