<svg id="Layer_1" data-name="Layer 1" xmlns="http://www.w3.org/2000/svg" width="28px" height="28px" viewBox="0 0 128 128"><defs><style>.cls-1{fill:#2d3e50;}.cls-2{fill:#1d75b8;}</style></defs><title>b</title><path class="cls-1" d="M111.97386,46.64688A11.25353,11.25353,0,0,1,100.645,52.85383c-.51665-.05747-13.1042-2.52515-21.23533-4.12382a3.54529,3.54529,0,0,0-2.54877.58191,4.98834,4.98834,0,0,0-.427,8.04091c.3721.31289.70977.607.97671.8567A57.57622,57.57622,0,0,1,95.44694,95.42867a4.42955,4.42955,0,0,1-4.40133,4.81795H25.49146A4.96474,4.96474,0,0,1,20.58153,94.547c2.29457-15.43717,1.77823-31.683-.552-48.45061a30.40048,30.40048,0,0,1-.21643-7.2515A41.78958,41.78958,0,0,1,61.37984,1.33416h11.229v8.74072s16.7654,5.13951,22.11761,7.011a12.70456,12.70456,0,0,1,1.58792.62383A8.55292,8.55292,0,0,1,99.476,22.55146c.73019,2.50948.25524,4.941,2.80015,6.47224,1.673,1.00662,3.43818,1.88565,5.1466,2.84978A11.24693,11.24693,0,0,1,111.97386,46.64688Z" id="id_103" style="fill: rgb(255, 255, 255);"></path><path class="cls-2" d="M95.23454,126.66584H19.726a4.86011,4.86011,0,0,1-4.50338-6.68776l3.14412-7.7472a4.86011,4.86011,0,0,1,4.50338-3.03246H92.09042a4.86011,4.86011,0,0,1,4.50338,3.03246l3.14412,7.7472A4.86011,4.86011,0,0,1,95.23454,126.66584Z" id="id_104" style="fill: rgb(255, 255, 255);"></path></svg>